<?xml version="1.0" ?><!DOCTYPE svg   PUBLIC '-//W3C//DTD SVG 1.1//EN'  'http://www.w3.org/Graphics/SVG/1.1/DTD/svg11.dtd'><svg fill="#ffffff" enable-background="new 0 0 38.071 35.13" height="35.13px" id="Layer_1" version="1.1" viewBox="0 0 38.071 35.13" width="38.071px" xml:space="preserve" xmlns="http://www.w3.org/2000/svg" xmlns:xlink="http://www.w3.org/1999/xlink"><g><g><path d="M23.417,35.13c-6.003,0-9.734-3.64-11.384-11.084c-0.043-0.194-0.007-0.397,0.1-0.564c0.331-0.521,0.65-1.058,0.97-1.598    c0.753-1.268,1.532-2.579,2.505-3.744c0.966-1.158,2.111-2.165,3.323-3.231c0.48-0.422,0.978-0.86,1.488-1.329l-0.003-0.74    c-0.007-0.922-0.014-1.962,0.011-3.003c0.053-2.309-1.193-4.674-3.333-6.324c-2.381-1.835-5.424-2.466-8.141-1.686    C5.659,2.774,3.237,5.208,2.133,8.682c-1.264,3.978-0.619,8.662,1.568,11.391c1.333,1.664,3.028,3.266,5.5,2.493    c0.397-0.123,0.815,0.099,0.939,0.494c0.123,0.396-0.098,0.816-0.494,0.939c-3.389,1.053-5.685-1.2-7.117-2.988    c-2.482-3.098-3.233-8.355-1.826-12.783C1.964,4.261,4.747,1.476,8.54,0.386c3.173-0.911,6.714-0.187,9.471,1.939    c2.517,1.94,3.98,4.762,3.917,7.546c-0.024,1.025-0.017,2.05-0.011,2.958l0.001,0.28c0.542-0.032,1.084-0.071,1.626-0.11    c1.537-0.111,3.123-0.229,4.704-0.168c2.626,0.096,5.677,1.847,7.772,4.459c1.572,1.961,2.293,4.07,1.977,5.787    c-1.486,8.085-7.968,11.507-13.066,11.98C24.412,35.106,23.907,35.13,23.417,35.13z M13.566,24.021    c1.664,7.166,5.15,10.105,11.226,9.543c4.577-0.425,10.396-3.498,11.73-10.759c0.237-1.288-0.372-2.956-1.673-4.577    c-1.806-2.252-4.481-3.819-6.656-3.899c-1.501-0.056-3.045,0.058-4.541,0.166c-0.703,0.051-1.405,0.102-2.107,0.137    c-0.018,0-0.033,0.001-0.054,0.001c-0.539,0.495-1.063,0.957-1.568,1.401c-1.219,1.072-2.271,1.998-3.163,3.067    c-0.897,1.073-1.645,2.331-2.367,3.548C14.12,23.112,13.846,23.571,13.566,24.021z"/></g><g><path d="M14.124,28.061c-0.208,0-0.416-0.086-0.564-0.255c-0.273-0.311-0.243-0.785,0.068-1.059    c2.76-2.425,6.063-3.137,10.394-2.236c0.524,0.11,1.153,0,1.819-0.115c0.432-0.075,0.879-0.152,1.334-0.177    c2.972-0.158,4.686-2.175,6.5-4.311c0.23-0.272,0.462-0.543,0.695-0.812c0.272-0.313,0.746-0.345,1.058-0.073    c0.313,0.272,0.346,0.746,0.073,1.058c-0.229,0.263-0.456,0.53-0.683,0.797c-1.94,2.284-3.947,4.646-7.563,4.838    c-0.366,0.02-0.751,0.086-1.158,0.157c-0.775,0.134-1.576,0.271-2.381,0.105c-3.833-0.798-6.724-0.195-9.098,1.894    C14.476,27.999,14.3,28.061,14.124,28.061z"/></g><g><path d="M12.445,25.039c-0.149,0-0.299-0.044-0.43-0.136c-0.319-0.223-0.753-0.459-1.172-0.688    c-1.182-0.644-2.297-1.251-2.349-2.244c-0.029-0.582-0.073-1.169-0.117-1.761c-0.28-3.778-0.598-8.061,2.948-11.198    c1.931-1.708,2.622-3.685,2.385-6.822c-0.031-0.413,0.278-0.773,0.691-0.805c0.414-0.035,0.774,0.278,0.804,0.691    c0.193,2.551,0,5.504-2.887,8.058c-2.989,2.645-2.726,6.2-2.447,9.964c0.045,0.603,0.089,1.203,0.119,1.794    c0.107,0.208,1.022,0.706,1.568,1.004c0.456,0.249,0.927,0.505,1.315,0.777c0.339,0.237,0.422,0.705,0.184,1.044    C12.914,24.928,12.681,25.039,12.445,25.039z"/></g></g></svg>